<svg id="Слой_1" data-name="Слой 1" xmlns="http://www.w3.org/2000/svg" viewBox="0 0 141.73228 70.86614"><defs><style>.cls-1{fill:#df3b3b;}.cls-2{fill:#f2f2f2;}</style></defs><rect class="cls-1" width="141.73228" height="70.86614"/><path class="cls-2" d="M28.04452,23.30386c-1.63162-.55027-5.58964-1.47475-11.66614,1.24863a.07565.07565,0,0,0,.03264.14473c5.98251-.14952,10.53625,3.30166,11.11606,7.1922.66282,4.44748-4.10554,7.87186-4.50289,8.14886-3.92218,2.7343-9.51351,2.65386-14.47911-.11047a.07552.07552,0,0,0-.09764.11056,17.21562,17.21562,0,0,0,11.187,6.82242,17.08654,17.08654,0,0,0,11.9608-2.83757.07511.07511,0,0,1,.09824.01074,31.05475,31.05475,0,0,1,3.39987,4.40469A31.53994,31.53994,0,0,1,39.2955,58.68412a.0758.0758,0,0,0,.14844-.0021C42.9074,40.70849,37.01084,26.32774,28.04452,23.30386Z"/><ellipse class="cls-2" cx="31.62072" cy="17.33944" rx="3.50606" ry="5.68645" transform="translate(-4.43335 18.13339) rotate(-29.99998)"/><circle class="cls-2" cx="49.62764" cy="54.50748" r="4.24797"/><path class="cls-2" d="M62.26577,50.52016l1.53613-9.04785h2.32764l1.812,4.82373,1.80029-4.82373H72.07l1.53564,9.04785H71.26577l-.78028-5.208-2.13574,5.208h-.936l-2.02784-5.208-.78027,5.208Z"/><path class="cls-2" d="M78.52553,43.464v7.05615H76.17348V43.464H74.24184v-1.9917h6.21582V43.464Z"/><path class="cls-2" d="M83.85366,41.47231v4.91992c0,.26416.01025.53369.03027.81006a2.2193,2.2193,0,0,0,.17969.75,1.25,1.25,0,0,0,.47412.5459,1.67212,1.67212,0,0,0,.91211.21,1.63833,1.63833,0,0,0,.90576-.21,1.30176,1.30176,0,0,0,.47412-.5459,2.1337,2.1337,0,0,0,.186-.75c.02-.27637.03027-.5459.03027-.81006V41.47231h2.33984V46.716a4.2368,4.2368,0,0,1-.96582,3.084,5.03243,5.03243,0,0,1-5.94628,0,4.21827,4.21827,0,0,1-.97168-3.084V41.47231ZM82.63,39.42006a1.10042,1.10042,0,0,1,.08984-.438,1.18844,1.18844,0,0,1,.25195-.37207,1.16016,1.16016,0,0,1,.37793-.252,1.1724,1.1724,0,0,1,.45606-.08984,1.12993,1.12993,0,0,1,.45019.08984,1.24085,1.24085,0,0,1,.37207.2461,1.16976,1.16976,0,0,1,.25781.37207,1.11083,1.11083,0,0,1,.0962.45605,1.09876,1.09876,0,0,1-.0962.46192,1.32337,1.32337,0,0,1-.25195.37207,1.09584,1.09584,0,0,1-.37207.252,1.1926,1.1926,0,0,1-1.2959-.25781A1.16543,1.16543,0,0,1,82.63,39.42006Zm3.26367,0a1.10091,1.10091,0,0,1,.09033-.438A1.18844,1.18844,0,0,1,86.236,38.61a1.16016,1.16016,0,0,1,.37793-.252,1.1724,1.1724,0,0,1,.45606-.08984,1.12752,1.12752,0,0,1,.4497.08984,1.22872,1.22872,0,0,1,.37207.2461,1.179,1.179,0,0,1,.2583.37207,1.1104,1.1104,0,0,1,.09571.45605,1.12821,1.12821,0,0,1-.3418.83984,1.14524,1.14524,0,0,1-.834.33594,1.13013,1.13013,0,0,1-.84034-.34179A1.16183,1.16183,0,0,1,85.8937,39.42006Z"/><path class="cls-2" d="M95.37417,50.52016V41.47231h2.35156L102.07,47.00405V41.47231h2.33984v9.04785H102.07l-4.34424-5.53222v5.53222Z"/><path class="cls-2" d="M110.986,44.3644h2.18408v6.15576H110.986v-.68408a2.2802,2.2802,0,0,1-1.88428.876,3.057,3.057,0,0,1-1.23584-.2461,2.96624,2.96624,0,0,1-.98388-.68994,3.18032,3.18032,0,0,1-.6543-1.04394,3.57391,3.57391,0,0,1-.23389-1.30811,3.474,3.474,0,0,1,.228-1.25391,3.219,3.219,0,0,1,.63623-1.03808,2.95668,2.95668,0,0,1,2.21973-.96,2.50709,2.50709,0,0,1,1.9082.8042ZM108.24965,47.424a1.43963,1.43963,0,0,0,.40235,1.0083,1.31787,1.31787,0,0,0,.44385.29981,1.425,1.425,0,0,0,.5581.10791,1.39439,1.39439,0,0,0,.5459-.10791,1.31807,1.31807,0,0,0,.44385-.29981,1.54952,1.54952,0,0,0,.30029-.44433,1.29784,1.29784,0,0,0,.11377-.53956,1.34278,1.34278,0,0,0-.11377-.54638,1.53,1.53,0,0,0-.30029-.44971,1.32631,1.32631,0,0,0-.44385-.30029,1.403,1.403,0,0,0-.5459-.10791,1.43371,1.43371,0,0,0-.5581.10791,1.32611,1.32611,0,0,0-.44385.30029,1.47206,1.47206,0,0,0-.29395.438A1.30866,1.30866,0,0,0,108.24965,47.424Z"/><path class="cls-2" d="M114.64565,44.3644h2.17188v1.00781a2.49648,2.49648,0,0,1,.852-.84619,2.29312,2.29312,0,0,1,1.17578-.29394h.186a1.36078,1.36078,0,0,1,.23389.02392v2.07617a2.06008,2.06008,0,0,0-.93555-.21582,1.39774,1.39774,0,0,0-1.13428.44971,1.9965,1.9965,0,0,0-.37792,1.314v2.64013h-2.17188Z"/><path class="cls-2" d="M122.31362,44.3644l1.46387,3.15576,1.48779-3.15576h2.42432l-3.20411,6.15576h-1.45214l-3.168-6.15576Z"/><path class="cls-2" d="M132.8854,44.3644h2.18408v6.15576H132.8854v-.68408a2.28022,2.28022,0,0,1-1.88428.876,3.057,3.057,0,0,1-1.23584-.2461,2.96628,2.96628,0,0,1-.98389-.68994,3.18046,3.18046,0,0,1-.65429-1.04394,3.5737,3.5737,0,0,1-.23389-1.30811,3.47375,3.47375,0,0,1,.228-1.25391,3.2188,3.2188,0,0,1,.63623-1.03808,2.95668,2.95668,0,0,1,2.21972-.96,2.50713,2.50713,0,0,1,1.90821.8042ZM130.14907,47.424a1.43968,1.43968,0,0,0,.40234,1.0083,1.318,1.318,0,0,0,.44385.29981,1.425,1.425,0,0,0,.5581.10791,1.39436,1.39436,0,0,0,.5459-.10791,1.31787,1.31787,0,0,0,.44385-.29981,1.54952,1.54952,0,0,0,.30029-.44433,1.29768,1.29768,0,0,0,.11377-.53956,1.34261,1.34261,0,0,0-.11377-.54638,1.53,1.53,0,0,0-.30029-.44971,1.32611,1.32611,0,0,0-.44385-.30029,1.403,1.403,0,0,0-.5459-.10791,1.43371,1.43371,0,0,0-.5581.10791,1.32621,1.32621,0,0,0-.44385.30029,1.472,1.472,0,0,0-.29394.438A1.3085,1.3085,0,0,0,130.14907,47.424Z"/><path class="cls-2" d="M64.28432,52.46352v3.90234a4.11766,4.11766,0,0,1-.09765,1.043,1.5662,1.5662,0,0,1-.332.66016,1.51324,1.51324,0,0,1-1.21093.53516,2.0417,2.0417,0,0,1-1.06641-.29688l.44531-.77734a1.13111,1.13111,0,0,0,.6211.22265.57414.57414,0,0,0,.5625-.30859,2.49827,2.49827,0,0,0,.16406-1.07813V52.46352Z"/><path class="cls-2" d="M68.36635,54.69008h.88282v3.80469h-.88282v-.39844a1.688,1.688,0,0,1-2.47265-.0625,2.1207,2.1207,0,0,1-.51172-1.45312,2.05509,2.05509,0,0,1,.51172-1.42578,1.649,1.649,0,0,1,1.28125-.57032,1.617,1.617,0,0,1,1.1914.54688Zm-2.08593,1.89063a1.32463,1.32463,0,0,0,.293.89062.95929.95929,0,0,0,.75782.34766,1.0081,1.0081,0,0,0,.78906-.33594,1.44594,1.44594,0,0,0,0-1.76562.99468.99468,0,0,0-.78125-.33985.97188.97188,0,0,0-.75781.34375A1.26637,1.26637,0,0,0,66.28042,56.58071Z"/><path class="cls-2" d="M71.23745,51.89711v6.59766h-.87891V51.89711Z"/><path class="cls-2" d="M76.03042,58.40493q0,.26952-.01758.47461a3.25256,3.25256,0,0,1-.04883.36132,1.6089,1.6089,0,0,1-.36719.73829,1.77915,1.77915,0,0,1-1.418.59375,1.8925,1.8925,0,0,1-1.2539-.41016,1.67758,1.67758,0,0,1-.58594-1.168h.88281a.99769.99769,0,0,0,.168.43359.94413.94413,0,0,0,.79688.35547q.96459,0,.96484-1.18359V58.069a1.64117,1.64117,0,0,1-1.207.53516,1.621,1.621,0,0,1-1.27344-.5625,2.084,2.084,0,0,1-.5-1.42579,2.19429,2.19429,0,0,1,.46484-1.41406,1.61518,1.61518,0,0,1,1.32032-.61719,1.53334,1.53334,0,0,1,1.19531.53516v-.42969h.87891Zm-.84375-1.80469a1.28164,1.28164,0,0,0-.29688-.88672.98175.98175,0,0,0-.76953-.33984.94575.94575,0,0,0-.78906.37109,1.529,1.529,0,0,0,0,1.71094.94707.94707,0,0,0,.78906.36328.96541.96541,0,0,0,.79687-.36719A1.30785,1.30785,0,0,0,75.18667,56.60024Z"/><path class="cls-2" d="M78.0187,60.56508h-.87891v-5.875h.87891v.41407a1.62692,1.62692,0,0,1,1.17968-.51954,1.64517,1.64517,0,0,1,1.293.57813A2.08736,2.08736,0,0,1,81.007,56.612a2.05509,2.05509,0,0,1-.51172,1.42578,1.66724,1.66724,0,0,1-2.47656.03125Zm2.08984-3.94922a1.31427,1.31427,0,0,0-.29687-.89062.95932.95932,0,0,0-.75782-.34766,1.00409,1.00409,0,0,0-.78515.33594,1.27278,1.27278,0,0,0-.30078.88281,1.3001,1.3001,0,0,0,.30078.88282A.98708.98708,0,0,0,79.05,57.819a.95289.95289,0,0,0,.7539-.34375A1.2478,1.2478,0,0,0,80.10854,56.61586Z"/><path class="cls-2" d="M84.74135,54.69008h.88282v3.80469h-.88282v-.39844a1.688,1.688,0,0,1-2.47265-.0625,2.1207,2.1207,0,0,1-.51172-1.45312,2.05509,2.05509,0,0,1,.51172-1.42578A1.649,1.649,0,0,1,83.55,54.58461a1.617,1.617,0,0,1,1.1914.54688Zm-2.08593,1.89063a1.32463,1.32463,0,0,0,.293.89062.95929.95929,0,0,0,.75782.34766,1.0081,1.0081,0,0,0,.78906-.33594,1.44594,1.44594,0,0,0,0-1.76562.99468.99468,0,0,0-.78125-.33985.97188.97188,0,0,0-.75781.34375A1.26637,1.26637,0,0,0,82.65542,56.58071Z"/><path class="cls-2" d="M87.61245,51.89711v6.59766h-.87891V51.89711Z"/><path class="cls-2" d="M89.60463,51.89711v6.59766h-.8789V51.89711Z"/><path class="cls-2" d="M90.5851,53.10805a.57356.57356,0,0,1,.57032-.5664.55407.55407,0,0,1,.40625.168.54154.54154,0,0,1,.168.40235.55407.55407,0,0,1-.168.40625.54151.54151,0,0,1-.40235.168.57352.57352,0,0,1-.57422-.57813Zm1.01172,1.582v3.80469h-.8789V54.69008Z"/><path class="cls-2" d="M96.257,52.46352V57.6393h1.77344v.85547h-2.6836V52.46352Z"/><path class="cls-2" d="M98.59292,53.10805a.57354.57354,0,0,1,.57031-.5664.55407.55407,0,0,1,.40625.168.54155.54155,0,0,1,.168.40235.55408.55408,0,0,1-.168.40625.54149.54149,0,0,1-.40235.168.5735.5735,0,0,1-.57421-.57813Zm1.01171,1.582v3.80469h-.8789V54.69008Z"/><path class="cls-2" d="M100.5851,53.10805a.57356.57356,0,0,1,.57032-.5664.55407.55407,0,0,1,.40625.168.54154.54154,0,0,1,.168.40235.55407.55407,0,0,1-.168.40625.54151.54151,0,0,1-.40235.168.57352.57352,0,0,1-.57422-.57813Zm1.01172,1.582v3.80469h-.8789V54.69008Z"/><path class="cls-2" d="M103.61635,55.5104v2.98437h-.8789V55.5104h-.375v-.82032h.375V53.29555h.8789v1.39453H104.3v.82032Z"/></svg>