<svg id="Layer_1" data-name="Layer 1" xmlns="http://www.w3.org/2000/svg" viewBox="0 0 50 50"><defs><style>.cls-1{fill:#f2f2f2;}</style></defs><path class="cls-1" d="M50,24.87A25,25,0,1,1,25,0,25,25,0,0,1,50,24.87Zm-2.27.37a22.73,22.73,0,1,0-23,22.49A22.77,22.77,0,0,0,47.73,25.24Z" transform="translate(0)"/><path class="cls-1" d="M12.54,24.75c0-10.95,1.26-12.26,12.15-12.25,1.89,0,3.78-.06,5.66.08,4.31.31,6.82,2.72,7,7a104.37,104.37,0,0,1,0,10.76c-.23,4.41-2.8,6.88-7.28,7.08-3.39.14-6.81.14-10.2,0-4.6-.19-7.1-2.72-7.37-7.3C12.46,28.34,12.54,26.54,12.54,24.75Zm22.66.51c0-1.7.07-3.4,0-5.09C35,16.62,33.44,15,29.94,14.83q-4.95-.18-9.92,0c-3.38.12-5.06,1.75-5.19,5.09s-.13,6.8,0,10.2,1.81,4.88,5.22,5.07c1.7.09,3.4.05,5.1.05C34.85,35.24,35.24,34.86,35.2,25.26Z" transform="translate(0)"/><path class="cls-1" d="M31.36,25.14a6.34,6.34,0,1,1-6.08-6.46A6.22,6.22,0,0,1,31.36,25.14Zm-2.26-.08A4.08,4.08,0,1,0,20.94,25a4,4,0,0,0,4,4.11A3.94,3.94,0,0,0,29.1,25.06Z" transform="translate(0)"/></svg>