<svg id="Layer_1" data-name="Layer 1" xmlns="http://www.w3.org/2000/svg" viewBox="0 0 50 50"><defs><style>.cls-1{fill:#f2f2f2;}</style></defs><path class="cls-1" d="M50,24.94A25,25,0,1,1,25.08,0,25,25,0,0,1,50,24.94Zm-2.27.1A22.73,22.73,0,1,0,24.89,47.73,22.77,22.77,0,0,0,47.73,25Z" transform="translate(0)"/><path class="cls-1" d="M25.08,17.05c2.27,0,4.54-.05,6.8,0,3,.07,4.37,1.33,4.46,4.28.08,2.54.06,5.1,0,7.65a3.65,3.65,0,0,1-3.92,3.93c-4.91.1-9.82.07-14.74,0-2.64,0-4-1.55-4-4.12s0-5.1,0-7.65,1.5-4,4.07-4.09S22.62,17.05,25.08,17.05ZM22,29.2c2.45-1.44,4.84-2.72,7.38-4.2L22,20.74C22,23.35,22,27.78,22,29.2Z" transform="translate(0)"/></svg>